<svg width="14" height="14" viewBox="0 0 14 14" fill="none" xmlns="http://www.w3.org/2000/svg">
<path fill-rule="evenodd" clip-rule="evenodd" d="M13.295 2.115C13.6844 1.72564 13.6844 1.09436 13.295 0.705C12.9056 0.315639 12.2744 0.315639 11.885 0.705L9.795 2.795C8.25136 4.33864 5.74864 4.33864 4.205 2.795L2.115 0.705C1.72564 0.315639 1.09436 0.315639 0.705 0.705C0.315639 1.09436 0.315639 1.72564 0.705 2.115L2.795 4.205C4.33864 5.74864 4.33864 8.25136 2.795 9.795L0.705 11.885C0.315639 12.2744 0.315639 12.9056 0.705 13.295C1.09436 13.6844 1.72564 13.6844 2.115 13.295L4.205 11.205C5.74864 9.66136 8.25136 9.66136 9.795 11.205L11.885 13.295C12.2744 13.6844 12.9056 13.6844 13.295 13.295C13.6844 12.9056 13.6844 12.2744 13.295 11.885L11.205 9.795C9.66136 8.25136 9.66136 5.74864 11.205 4.205L13.295 2.115Z" fill="white"/>
</svg>
